<svg width="32" height="32" viewBox="0 0 32 32" fill="none" xmlns="http://www.w3.org/2000/svg">
<g clip-path="url(#clip0_13_199)">
<g clip-path="url(#clip1_13_199)">
<mask id="mask0_13_199" style="mask-type:alpha" maskUnits="userSpaceOnUse" x="0" y="0" width="32" height="32">
<circle cx="16" cy="16" r="16" fill="#F578A5"/>
</mask>
<g mask="url(#mask0_13_199)">
<circle cx="16" cy="16" r="16" fill="#56B280"/>
<path d="M8.63999 31.7681V32.1181H8.98999H23.8306H24.1806V31.7681V25.541C24.1806 24.9691 23.7272 24.5 23.1556 24.4806L9.73725 24.0231C9.13739 24.0027 8.63999 24.4834 8.63999 25.0836V31.7681Z" fill="white" stroke="white" stroke-width="0.7"/>
<g clip-path="url(#clip2_13_199)">
<path d="M11.7229 11.235C14.9836 6.70128 13.581 3.01101 13.5849 3.00664C13.5158 2.82183 13.6096 2.61601 13.7944 2.54687C13.8876 2.512 13.9912 2.51762 14.0801 2.56234C19.965 5.37835 22.4975 9.01357 22.9824 12.3002C23.1752 13.5771 23.0547 14.8818 22.6313 16.1018C22.2433 17.2276 21.5969 18.2468 20.7441 19.0778C19.1037 20.662 16.8112 21.3923 14.5486 20.652C13.9698 20.4631 13.4237 20.1861 12.9294 19.8306C11.938 19.1191 11.1859 18.1232 10.7728 16.9749C10.3344 15.7467 10.3205 14.4071 10.7332 13.1701C10.9612 12.4777 11.295 11.825 11.7229 11.235Z" fill="white"/>
<path d="M13.6567 3.1237C13.5134 2.98812 13.5071 2.76201 13.6426 2.6187C13.7782 2.47539 14.0043 2.46906 14.1476 2.60464C14.1582 2.61461 14.1681 2.62521 14.1773 2.6364C14.1905 2.64822 17.0318 5.62653 17.4377 11.3829L17.4419 11.4369C17.5296 12.7824 17.4863 14.1331 17.3128 15.4702L19.2556 13.9812C19.4184 13.8697 19.6407 13.9111 19.7523 14.0738C19.8533 14.2212 19.83 14.4204 19.6977 14.5404L17.1586 16.4803C16.5902 19.8222 14.5864 24.5499 17.2391 27.5089C17.3668 27.6593 17.3485 27.8847 17.1981 28.0125C17.055 28.1341 16.8422 28.1241 16.7111 27.9897C13.5301 24.444 15.8447 20.0517 16.4782 16.2533L16.4865 16.2C16.7441 14.6885 16.8324 13.153 16.7497 11.6219L14.4661 9.94867C14.3032 9.83733 14.2614 9.61502 14.3727 9.45213C14.4841 9.28924 14.7064 9.24746 14.8693 9.3588C14.876 9.36342 14.8826 9.36825 14.889 9.37334L16.6585 10.676C16.1065 5.6861 13.6671 3.13567 13.6567 3.1237Z" fill="#56B280"/>
</g>
</g>
</g>
</g>
<defs>
<clipPath id="clip0_13_199">
<rect width="32" height="32" fill="white"/>
</clipPath>
<clipPath id="clip1_13_199">
<rect width="32" height="32" fill="white"/>
</clipPath>
<clipPath id="clip2_13_199">
<rect width="19.6373" height="19.6373" fill="white" transform="translate(1.88611 15.6754) rotate(-48)"/>
</clipPath>
</defs>
</svg>
